<?xml version="1.0" standalone="no"?>
<!DOCTYPE svg PUBLIC "-//W3C//DTD SVG 20010904//EN"
 "http://www.w3.org/TR/2001/REC-SVG-20010904/DTD/svg10.dtd">
<svg version="1.0" xmlns="http://www.w3.org/2000/svg"
 width="222.000000pt" height="222.000000pt" viewBox="0 0 222.000000 222.000000"
 preserveAspectRatio="xMidYMid meet">

<g transform="translate(0.000000,222.000000) scale(0.100000,-0.100000)"
fill="#000000" stroke="none">
<path d="M386 1700 c-37 -12 -74 -46 -94 -90 -14 -30 -17 -95 -20 -492 l-3
-458 65 0 66 0 0 147 0 146 42 39 c23 21 45 38 48 38 4 0 61 -83 126 -185
l119 -185 159 0 159 0 -6 -67 c-7 -91 -31 -113 -121 -113 l-63 0 -7 -51 c-4
-28 -4 -54 -1 -58 4 -3 46 -7 93 -9 75 -3 93 0 131 20 75 39 100 92 101 221
l0 57 55 0 55 0 0 50 0 50 -55 0 -55 0 0 390 0 391 25 24 c21 21 33 25 89 25
l64 0 9 53 c11 64 8 65 -102 66 -98 1 -158 -24 -190 -79 -19 -33 -20 -57 -25
-450 l-5 -415 -72 -3 -72 -3 -3 -46 -3 -46 -155 232 -154 233 141 139 142 139
-89 0 -88 0 -140 -145 c-77 -80 -143 -145 -147 -145 -4 0 -5 95 -4 211 l4 211
28 24 c23 20 39 24 91 24 l63 0 7 52 c5 37 4 53 -6 59 -17 11 -164 10 -202 -1z"/>
<path d="M1476 1700 c-37 -12 -74 -46 -94 -90 -14 -30 -17 -95 -20 -492 l-3
-458 65 0 66 0 0 147 0 146 42 39 c23 21 45 38 48 38 4 0 61 -83 126 -185
l119 -185 83 0 82 0 -157 236 -158 236 142 139 142 139 -89 0 -88 0 -140 -145
c-77 -80 -143 -145 -147 -145 -4 0 -5 95 -4 211 l4 211 28 24 c23 20 39 24 91
24 l63 0 7 52 c5 37 4 53 -6 59 -17 11 -164 10 -202 -1z"/>
</g>
</svg>
